<?xml version="1.0" standalone="no"?>
<!DOCTYPE svg PUBLIC "-//W3C//DTD SVG 20010904//EN"
 "http://www.w3.org/TR/2001/REC-SVG-20010904/DTD/svg10.dtd">
<svg version="1.0" xmlns="http://www.w3.org/2000/svg"
 width="700.000000pt" height="700.000000pt" viewBox="0 0 700.000000 700.000000"
 preserveAspectRatio="xMidYMid meet">
<metadata>
Created by potrace 1.14, written by Peter Selinger 2001-2017
</metadata>
<g transform="translate(0.000000,700.000000) scale(0.100000,-0.100000)"
fill="#000000" stroke="none">
<path d="M2285 6070 c-92 -14 -170 -74 -211 -164 -48 -106 -22 -230 65 -309
23 -21 59 -45 80 -54 l39 -17 0 -195 c0 -108 1 -201 1 -208 1 -8 53 -11 189
-11 103 0 199 -1 215 -1 l27 -1 0 -135 0 -134 -42 -11 c-173 -44 -326 -156
-410 -301 -26 -44 -81 -179 -73 -179 2 0 -1 -14 -6 -32 -5 -18 -9 -69 -10
-114 l-1 -82 -308 0 c-170 0 -312 -2 -317 -5 -5 -3 -9 -150 -9 -338 l1 -332
-25 -10 c-165 -71 -232 -262 -143 -405 95 -154 303 -180 429 -54 75 75 102
184 69 283 -23 67 -90 140 -150 164 l-45 17 2 271 3 272 247 0 246 0 0 -626
c0 -440 3 -643 12 -682 50 -242 231 -437 460 -497 l65 -17 3 -140 3 -140 -212
1 c-116 1 -213 -3 -216 -8 -3 -5 -6 -97 -6 -205 l0 -197 -46 -22 c-56 -25
-105 -72 -134 -126 -30 -56 -31 -183 -2 -241 89 -180 341 -211 463 -57 80 100
85 234 14 332 -34 47 -58 67 -112 93 l-46 22 2 125 c0 69 2 130 2 135 1 7 72
10 205 10 111 -1 207 0 213 2 7 3 10 67 10 199 -1 108 3 198 8 202 7 4 444 6
566 3 l26 -1 0 -183 0 -184 -53 -28 c-170 -89 -206 -306 -72 -444 66 -68 190
-97 283 -65 56 19 130 84 158 137 26 52 34 143 18 203 -19 67 -78 137 -143
168 l-54 27 2 182 c1 100 3 184 3 187 1 3 134 5 294 4 l293 -1 5 -204 5 -204
213 0 212 1 0 -136 0 -136 -37 -17 c-104 -46 -167 -143 -166 -256 1 -79 20
-127 74 -186 132 -143 375 -100 455 82 25 57 23 167 -4 220 -33 65 -78 110
-133 134 l-49 23 0 202 c0 153 -3 203 -12 206 -7 2 -104 3 -215 3 -177 -1
-203 1 -204 14 -1 20 -1 231 0 251 1 10 12 17 29 18 44 4 159 52 217 91 131
88 218 201 263 341 27 85 32 119 33 218 l1 82 41 0 c23 1 168 2 322 3 l280 2
0 331 0 332 47 22 c178 84 215 318 73 449 -58 53 -107 73 -185 74 -292 5 -386
-383 -126 -519 l56 -29 0 -262 0 -263 -254 0 -254 0 0 609 c0 647 -2 674 -49
791 -83 203 -254 345 -475 394 l-28 6 0 135 0 135 38 1 c20 0 117 1 215 1
l177 0 1 37 c0 20 0 113 0 206 l0 170 47 22 c105 49 157 134 157 253 0 80 -18
127 -67 181 -123 136 -340 117 -438 -38 -27 -42 -35 -66 -44 -127 -5 -33 13
-108 35 -151 25 -47 69 -89 124 -117 22 -11 42 -24 45 -29 3 -4 5 -66 5 -136
l0 -128 -217 -3 -216 -2 2 -200 c1 -171 -1 -200 -14 -201 -8 0 -141 -1 -295
-2 l-280 -1 -1 181 -1 181 48 22 c161 72 210 292 94 427 -127 149 -365 121
-458 -52 -17 -32 -22 -57 -22 -125 0 -75 3 -91 27 -131 33 -56 86 -104 137
-125 l37 -15 0 -179 0 -180 -26 -1 c-14 0 -147 -2 -297 -2 -234 -2 -272 0
-275 13 -2 8 -3 99 -2 203 l1 187 -216 0 -217 0 0 138 0 138 43 18 c93 39 165
148 165 250 0 99 -64 207 -147 249 -42 21 -122 34 -170 27z m101 -148 c67 -28
100 -136 61 -196 -59 -89 -196 -86 -243 5 -61 120 56 243 182 191z m2342 -8
c35 -23 62 -74 62 -119 0 -126 -156 -185 -239 -89 -17 19 -32 40 -32 47 -6 55
-3 77 15 111 36 68 129 91 194 50z m-1170 -313 c71 -36 95 -126 53 -194 -67
-109 -236 -73 -254 54 -6 50 28 117 73 141 44 23 81 23 128 -1z m805 -920
c174 -62 311 -229 335 -410 10 -72 8 -1502 -2 -1560 -24 -145 -123 -281 -259
-359 -22 -13 -71 -31 -110 -42 -69 -19 -100 -20 -857 -18 -747 3 -787 4 -835
22 -185 72 -314 222 -342 401 -4 22 -7 382 -7 800 0 752 0 761 22 830 58 189
200 314 407 359 11 2 371 3 800 2 l780 -1 68 -24z m1140 -734 c37 -28 56 -76
50 -127 -13 -125 -187 -162 -253 -55 -81 132 80 276 203 182z m-3837 -662 c51
-33 70 -114 42 -170 -55 -106 -196 -106 -248 -1 -62 130 84 251 206 171z
m1895 -1657 c45 -25 70 -67 71 -116 2 -138 -172 -195 -252 -82 -28 39 -31 86
-9 138 14 33 28 47 60 61 53 24 86 24 130 -1z m1182 -313 c56 -36 71 -131 31
-192 -22 -35 -83 -62 -127 -57 -158 18 -168 240 -12 274 35 8 72 -1 108 -25z
m-2360 16 c14 -6 38 -26 53 -47 52 -68 29 -165 -49 -203 -121 -60 -245 68
-182 189 30 59 111 86 178 61z"/>
</g>
</svg>
